<svg xmlns="http://www.w3.org/2000/svg" width="109.21" height="43.47" viewBox="0 0 109.21 43.47"><path d="M34.33,1.85l-.6,1.75a2.83,2.83,0,0,1-1,1.3,3.1,3.1,0,0,1-1.92.55h-.05L32.45,8.1H29.32L27.91,5.45H26.59L25.68,8.1H23l1.56-4.52h6.32a.22.22,0,0,0,.22-.14l.46-1.33c0-.1,0-.15-.12-.15H25.08l.68-2H32.7a1.82,1.82,0,0,1,1.43.54A1.23,1.23,0,0,1,34.33,1.85Z" fill="#fff"/><path d="M42.39,3.22l-.57,1.65h-4L36.74,8.1H34L35.7,3.22ZM44.47,2H36.14L36.55.81A1.24,1.24,0,0,1,37.76,0h7.39Z" fill="#fff"/><path d="M62.51.54a1.22,1.22,0,0,1,.2,1.31L60.56,8.1H57.84l.68-1.95H56.33l.68-2h2.18l.67-1.95c.07-.19,0-.28-.24-.28H56.05L55.19,4.5l-.58,1.64-.67,2H51.22l2.16-6.25A2.31,2.31,0,0,1,55.6,0h5.49A1.77,1.77,0,0,1,62.51.54Z" fill="#fff"/><path d="M64.23,1.68,65.84,4.9,64.73,8.1H62Zm5.62,3.13L67.54,0H64.81l4,8.1h2.57L74.24,0H71.51Z" fill="#fff"/><path d="M83.61.54a1.22,1.22,0,0,1,.21,1.31L82.3,6.25a2.81,2.81,0,0,1-1,1.32,2.7,2.7,0,0,1-1.66.53H72.81l.68-2h5.94A.22.22,0,0,0,79.66,6L81,2.11c0-.1,0-.15-.12-.15H74.93l.68-2h6.58A1.77,1.77,0,0,1,83.61.54Z" fill="#fff"/><polygon points="70.08 36.5 36.43 36.5 33.39 43.47 67.04 43.47 70.08 36.5" fill="#0b0820"/><path d="M43.61,41v.67h-3V38.36h.81V41Z" fill="#6db75a"/><path d="M44.62,38.36h1.81a1.21,1.21,0,0,1,.48.09,1.25,1.25,0,0,1,.34.25.94.94,0,0,1,.2.35,1.09,1.09,0,0,1,.07.4,1.12,1.12,0,0,1-.07.4,1,1,0,0,1-.2.35,1,1,0,0,1-.34.24,1.21,1.21,0,0,1-.48.1h-1V41.7h-.8Zm.8,1.5h.92a.35.35,0,0,0,.3-.13.42.42,0,0,0,.1-.28.77.77,0,0,0,0-.15.39.39,0,0,0-.08-.14.27.27,0,0,0-.12-.09.34.34,0,0,0-.18,0h-.92Z" fill="#6db75a"/><path d="M49.6,41.75l-1.3-3.39h.84L50,40.62l.84-2.26h.53l.84,2.26L53,38.36h.84l-1.29,3.39h-.64l-.83-2.15-.82,2.15Z" fill="#6db75a"/><path d="M55.53,38.31h.82L58,41.7H57.1l-.23-.49H55l-.23.49h-.86Zm-.2,2.23h1.22l-.61-1.27Z" fill="#6db75a"/><path d="M59,38.36h.81l2,2.33V38.36h.8V41.7h-.8l-2-2.33V41.7H59Z" fill="#6db75a"/><path d="M82.21,25.83H75.37a.39.39,0,1,0,0,.77h6.84a.39.39,0,0,0,0-.77Z" fill="#fff"/><path d="M73.93,28h8.28a.39.39,0,0,0,.38-.39.38.38,0,0,0-.38-.38h-7.9V23.33a.39.39,0,0,0-.77,0v4.32A.39.39,0,0,0,73.93,28Z" fill="#fff"/><path d="M72.1,27.65a.4.4,0,0,0,.39.39.39.39,0,0,0,.38-.39V22.28h7.18a.39.39,0,0,0,0-.77H72.49a.39.39,0,0,0-.39.38Z" fill="#fff"/><path d="M72.49,12.87a.39.39,0,0,0-.39.38V19a.39.39,0,0,0,.39.39h7.56a.39.39,0,0,0,0-.77H72.87V13.25A.38.38,0,0,0,72.49,12.87Z" fill="#fff"/><path d="M72.49,20.84h7.56a.39.39,0,0,0,.38-.39.38.38,0,0,0-.38-.38H72.49a.39.39,0,0,0-.39.38A.4.4,0,0,0,72.49,20.84Z" fill="#fff"/><path d="M82.21,12.87H73.93a.38.38,0,0,0-.39.38v4.32a.39.39,0,1,0,.77,0V13.64h7.9a.39.39,0,0,0,.38-.39A.38.38,0,0,0,82.21,12.87Z" fill="#fff"/><path d="M82.21,14.31H75.37a.39.39,0,1,0,0,.77h6.84a.39.39,0,0,0,0-.77Z" fill="#fff"/><path d="M82.21,11.43H71.05a.39.39,0,0,0-.39.38V29.09a.4.4,0,0,0,.39.39H82.21a.39.39,0,0,0,.38-.39.38.38,0,0,0-.38-.38H71.43V12.2H82.21a.39.39,0,0,0,0-.77Z" fill="#fff"/><path d="M56.85,25.88H50a.39.39,0,0,0,0,.77h6.84a.39.39,0,1,0,0-.77Z" fill="#fff"/><path d="M48.57,28.09h8.28a.39.39,0,1,0,0-.77H49V23.38a.38.38,0,1,0-.76,0V27.7A.38.38,0,0,0,48.57,28.09Z" fill="#fff"/><path d="M46.75,27.7a.38.38,0,0,0,.38.39.39.39,0,0,0,.39-.39V22.33h7.17a.39.39,0,0,0,0-.77H47.13a.38.38,0,0,0-.38.38Z" fill="#fff"/><path d="M47.13,12.92a.38.38,0,0,0-.38.38v5.76a.38.38,0,0,0,.38.39h7.56a.39.39,0,0,0,0-.77H47.52V13.3A.39.39,0,0,0,47.13,12.92Z" fill="#fff"/><path d="M47.13,20.89h7.56a.39.39,0,0,0,.38-.39.38.38,0,0,0-.38-.38H47.13a.38.38,0,0,0-.38.38A.39.39,0,0,0,47.13,20.89Z" fill="#fff"/><path d="M56.85,12.92H48.57a.38.38,0,0,0-.38.38v4.32a.38.38,0,0,0,.76,0V13.69h7.9a.4.4,0,0,0,.39-.39A.39.39,0,0,0,56.85,12.92Z" fill="#fff"/><path d="M56.85,14.36H50a.39.39,0,0,0,0,.77h6.84a.39.39,0,1,0,0-.77Z" fill="#fff"/><path d="M56.85,11.48H45.69a.38.38,0,0,0-.38.38V29.14a.39.39,0,0,0,.38.39H56.85a.4.4,0,0,0,.39-.39.39.39,0,0,0-.39-.38H46.08V12.25H56.85a.39.39,0,1,0,0-.77Z" fill="#fff"/><path d="M30.29,11.48H21.66a.39.39,0,0,0-.37.29v0L16.89,28.35a.6.6,0,0,1-.57.43.58.58,0,0,1-.57-.43L12.13,14.72a.38.38,0,0,0-.37-.29.39.39,0,0,0-.37.29L7.58,29.07a.4.4,0,0,0,.27.47H8a.38.38,0,0,0,.37-.28l3.44-13L15,28.54a1.35,1.35,0,0,0,2.62,0l3.65-13.76a.38.38,0,0,0,.38.35h2.49V25.88H21.66a.39.39,0,1,0,0,.77h2.88a.38.38,0,0,0,.38-.39V14.74a.38.38,0,0,0-.38-.38H21.66a.38.38,0,0,0-.31.17l.23-.86.08,0h3.93v14a.38.38,0,0,0,.39.39h4.31a.39.39,0,1,0,0-.77H26.36v-14a.38.38,0,0,0-.38-.38h-4.2l.17-.67h8.34a.39.39,0,1,0,0-.77Z" fill="#fff"/><path d="M30.29,12.92H27.41a.38.38,0,0,0-.38.38.39.39,0,0,0,.38.39h2.88a.39.39,0,0,0,.39-.39A.38.38,0,0,0,30.29,12.92Z" fill="#fff"/><path d="M30.29,15.13a.39.39,0,1,0,0-.77H27.41a.38.38,0,0,0-.38.38V26.26a.38.38,0,0,0,.38.39h2.88a.39.39,0,1,0,0-.77H27.8V15.13Z" fill="#fff"/><path d="M21.66,28.09h2.88a.39.39,0,0,0,0-.77H21.66a.39.39,0,1,0,0,.77Z" fill="#fff"/><path d="M30.29,28.76H21.66a.38.38,0,0,0-.39.38.39.39,0,0,0,.39.39h8.63a.39.39,0,0,0,.39-.39A.38.38,0,0,0,30.29,28.76Z" fill="#fff"/><path d="M69.7,25.78H60.22V11.92a.4.4,0,0,0-.39-.39.39.39,0,0,0-.38.39V26.17a.38.38,0,0,0,.38.38H69.7a.38.38,0,0,0,.38-.38A.39.39,0,0,0,69.7,25.78Z" fill="#fff"/><path d="M61.29,25.09a.39.39,0,0,0,.39-.38V11.92a.4.4,0,0,0-.39-.39.39.39,0,0,0-.38.39V24.71A.38.38,0,0,0,61.29,25.09Z" fill="#fff"/><path d="M69.7,27.25h-11V11.92a.38.38,0,1,0-.76,0V27.63a.38.38,0,0,0,.38.38H69.7a.38.38,0,1,0,0-.76Z" fill="#fff"/><path d="M69.7,28.71H58.37a.38.38,0,0,0-.38.38.39.39,0,0,0,.38.39H69.7a.39.39,0,0,0,.38-.39A.38.38,0,0,0,69.7,28.71Z" fill="#fff"/><path d="M40.07,15.36a1.73,1.73,0,0,1,.65.81,1.36,1.36,0,0,1,.12.5v.27a2,2,0,0,1,0,.26,1.82,1.82,0,0,1-.5.91,1.81,1.81,0,0,1-.92.47l-.17,0H35.14v-2.5a.39.39,0,0,0-.77,0V19a.39.39,0,0,0,.38.39h4.64l.14,0a2.51,2.51,0,0,0,1.32-.68,2.58,2.58,0,0,0,.72-1.3,2.35,2.35,0,0,0,0-.35s0-.13,0-.14v-.15a.41.41,0,0,1,0-.11,2.82,2.82,0,0,0-.18-.72,2.54,2.54,0,0,0-2.36-1.59H33.31a.38.38,0,0,0-.38.38v14.4a.39.39,0,0,0,.77,0v-14h5.37A1.78,1.78,0,0,1,40.07,15.36Z" fill="#fff"/><path d="M40,21.69a.38.38,0,1,0-.7.29l3,7.24a.37.37,0,0,0,.35.23.4.4,0,0,0,.15,0,.38.38,0,0,0,.21-.5Z" fill="#fff"/><path d="M41.56,21.65a6.11,6.11,0,0,0,.68-.41,6,6,0,0,0,.61-.52,5.42,5.42,0,0,0,1-1.27,6.07,6.07,0,0,0,.34-.73,5.56,5.56,0,0,0,.22-.77,5.27,5.27,0,0,0,.11-.89v-.32l0-.39a5.23,5.23,0,0,0-.37-1.56,5.47,5.47,0,0,0-2-2.46,7.76,7.76,0,0,0-.69-.4,7.71,7.71,0,0,0-.75-.29,6.93,6.93,0,0,0-.79-.17,5.19,5.19,0,0,0-.8-.06h-7.2a.38.38,0,1,0,0,.76h7.2a5.36,5.36,0,0,1,.69.06,3.82,3.82,0,0,1,.67.15,4.44,4.44,0,0,1,.64.24,6,6,0,0,1,.61.35,4.65,4.65,0,0,1,1.71,2.11,4.78,4.78,0,0,1,.32,1.33l0,.36v.33a4.08,4.08,0,0,1-.09.69,5,5,0,0,1-.19.66,4.51,4.51,0,0,1-.29.63,4.63,4.63,0,0,1-.83,1.09,3.75,3.75,0,0,1-.53.44,3.58,3.58,0,0,1-.59.36l-.3.15a.38.38,0,0,0-.19.49l3.17,7.61a.37.37,0,0,0,.35.23.4.4,0,0,0,.15,0,.38.38,0,0,0,.21-.5Z" fill="#fff"/><path d="M39.54,13.65a3.56,3.56,0,0,1,.47.1,4.22,4.22,0,0,1,.45.18l.41.23a3.19,3.19,0,0,1,1.35,3.34,3.27,3.27,0,0,1-.91,1.64,3.2,3.2,0,0,1-1.67.86l-.29,0h-4.6a.38.38,0,0,0,0,.76h4.43l.32,0,.28,0A4,4,0,0,0,43,17.65a4,4,0,0,0-1.67-4.12,4.4,4.4,0,0,0-.51-.29,3.71,3.71,0,0,0-.55-.22,3.75,3.75,0,0,0-.58-.13,3.81,3.81,0,0,0-.59,0h-7.2a.38.38,0,0,0-.38.38V29.07a.39.39,0,0,0,.77,0V13.61h6.81Z" fill="#fff"/><path d="M38.47,21.73a.38.38,0,0,0-.36-.24H34.75a.38.38,0,0,0-.38.38v7.2a.39.39,0,0,0,.77,0V22.26h2.72l2.9,7a.37.37,0,0,0,.35.23.4.4,0,0,0,.15,0,.38.38,0,0,0,.21-.5Z" fill="#fff"/><path d="M83.94,19.75c.1.12.2.24.32.36l.14.14.16.15c.22.18.43.34.65.49a6.15,6.15,0,0,0,.64.37l.19.1.12.06.11,0,.22.1c.39.16.79.31,1.24.45s.81.23,1.21.33.66.17,1,.27a8.7,8.7,0,0,1,.9.32l.12.06.11.05.15.08a2.17,2.17,0,0,1,.33.19l.28.21,0,.06.08.09a.53.53,0,0,1,.1.14,1.24,1.24,0,0,1,.07.24v.3a1.21,1.21,0,0,1-.16.42,1.84,1.84,0,0,1-.37.43,3,3,0,0,1-1.24.63,3.57,3.57,0,0,1-.76.11,2.41,2.41,0,0,1-.38,0,2.58,2.58,0,0,1-.39,0,3.31,3.31,0,0,1-1.36-.5,1.85,1.85,0,0,1-.73-.84.38.38,0,0,0-.72.27,2.63,2.63,0,0,0,1,1.21,4,4,0,0,0,1.66.62,3.75,3.75,0,0,0,.47,0h.46a5.1,5.1,0,0,0,.91-.14,3.84,3.84,0,0,0,1.56-.79,2.72,2.72,0,0,0,.52-.62,2,2,0,0,0,.26-.68v-.1s0-.08,0-.18V24.1a1.26,1.26,0,0,0,0-.16,1.3,1.3,0,0,0,0-.15,1.63,1.63,0,0,0-.11-.31,2.11,2.11,0,0,0-.18-.27.79.79,0,0,0-.11-.14L92.35,23l-.08-.07a2.34,2.34,0,0,0-.34-.26l-.38-.22-.17-.09-.12-.06-.16-.07c-.3-.12-.62-.24-1-.34s-.67-.2-1-.28-.77-.2-1.16-.32a9.9,9.9,0,0,1-1.17-.43l-.58-.28a4.79,4.79,0,0,1-.58-.33,6.24,6.24,0,0,1-.62-.48l-.21-.2a3.74,3.74,0,0,1-.25-.29,3.7,3.7,0,0,1-.71-1.43c0-.13,0-.26-.07-.38l0-.39a4,4,0,0,1,0-.77,4.37,4.37,0,0,1,.53-1.42,4.91,4.91,0,0,1,.94-1.11A5.61,5.61,0,0,1,86.43,13a5.83,5.83,0,0,1,1.27-.47,6.57,6.57,0,0,1,1.33-.2h.67a5.26,5.26,0,0,1,.67.07l.32,0,.33.08a5.38,5.38,0,0,1,.65.2,4.85,4.85,0,0,1,.62.27,4.48,4.48,0,0,1,.6.35,4.85,4.85,0,0,1,1.07.94,4.25,4.25,0,0,1,.76,1.27.4.4,0,0,0,.5.22.39.39,0,0,0,.22-.5,5.2,5.2,0,0,0-.9-1.49,6,6,0,0,0-1.22-1.08,6.71,6.71,0,0,0-.68-.4c-.23-.11-.47-.21-.71-.3a6.67,6.67,0,0,0-.72-.23l-.37-.08-.37-.07-.74-.06a4.57,4.57,0,0,0-.74,0,7.35,7.35,0,0,0-1.48.22,6.56,6.56,0,0,0-2.75,1.42,5.45,5.45,0,0,0-1.08,1.28A5,5,0,0,0,83,16.18a4.79,4.79,0,0,0-.06.92v.1s0,.13,0,.14l0,.23c0,.16,0,.31.09.46a4.65,4.65,0,0,0,.33.93A4.86,4.86,0,0,0,83.94,19.75Z" fill="#fff"/><path d="M85.35,16.08a3.07,3.07,0,0,1,.87-1.22,4.45,4.45,0,0,1,1.84-.93,5.41,5.41,0,0,1,2.09-.11l.52.1c.17,0,.34.1.49.15l.49.21q.22.12.45.27a3.51,3.51,0,0,1,.76.67,3,3,0,0,1,.52.85.38.38,0,0,0,.49.22.39.39,0,0,0,.23-.49,3.89,3.89,0,0,0-.65-1.08,4.59,4.59,0,0,0-.93-.81A5.64,5.64,0,0,0,92,13.6a4.72,4.72,0,0,0-.56-.24,5.58,5.58,0,0,0-.58-.18l-.25-.06-.13,0-.21,0a6.17,6.17,0,0,0-2.39.12,5.17,5.17,0,0,0-2.16,1.11,4,4,0,0,0-.8,1,3.77,3.77,0,0,0-.28.57,3.43,3.43,0,0,0-.16.61,2.9,2.9,0,0,0,0,.67.61.61,0,0,0,0,.14l0,.21a2,2,0,0,0,0,.26,3,3,0,0,0,.22.62,3.46,3.46,0,0,0,.35.53,2.78,2.78,0,0,0,.22.26l.1.09.12.11a3.32,3.32,0,0,0,.49.37,4.74,4.74,0,0,0,.52.31l.18.09.36.17c.36.15.73.28,1.1.4s.74.21,1.12.3.71.18,1.06.29a9.81,9.81,0,0,1,1,.38l.21.09.1.05.18.09q.23.12.45.27a3,3,0,0,1,.39.29l.24.23.12.14a2.27,2.27,0,0,1,.26.4,2.54,2.54,0,0,1,.17.46c0,.07,0,.13,0,.22v.51s0,.1,0,.11l0,.12a2.47,2.47,0,0,1-.35.92,3.13,3.13,0,0,1-.65.77,4.25,4.25,0,0,1-.85.58,5.05,5.05,0,0,1-3.08.47l-.24,0-.11,0-.17-.05a4.74,4.74,0,0,1-.5-.15,5,5,0,0,1-.48-.21,3.47,3.47,0,0,1-.45-.26,3.76,3.76,0,0,1-.76-.67,3,3,0,0,1-.52-.85.38.38,0,1,0-.71.27,3.51,3.51,0,0,0,.64,1.08,4.51,4.51,0,0,0,.93.81,5.64,5.64,0,0,0,.53.31,5.55,5.55,0,0,0,.56.24,4.43,4.43,0,0,0,.56.17l.21.05.11,0,.29.05a7,7,0,0,0,.91.06A6.26,6.26,0,0,0,90.87,28,5.87,5.87,0,0,0,92,27.55a4.9,4.9,0,0,0,1-.68,4.21,4.21,0,0,0,.8-.95,3.37,3.37,0,0,0,.45-1.2l0-.18,0-.13v-.22a.66.66,0,0,0,0-.14.45.45,0,0,0,0-.12l0-.2a2.33,2.33,0,0,0,0-.28,3,3,0,0,0-.22-.61,3,3,0,0,0-.35-.53l-.15-.19s-.06-.06-.07-.07l-.1-.1-.12-.11a5.72,5.72,0,0,0-.49-.37,5.61,5.61,0,0,0-.51-.3l-.21-.1L91.9,21l-.23-.1c-.36-.15-.73-.28-1.1-.4s-.74-.21-1.12-.3-.71-.18-1.06-.29-.69-.24-1-.38l-.49-.23q-.23-.12-.45-.27a3.15,3.15,0,0,1-.41-.31l-.2-.19-.14-.16a2.33,2.33,0,0,1-.26-.41,2.2,2.2,0,0,1-.17-.45c0-.06,0-.13,0-.23V17a1.91,1.91,0,0,1,0-.48A2.42,2.42,0,0,1,85.35,16.08Z" fill="#fff"/><path d="M95.74,23.82l0-.26a3.11,3.11,0,0,0-.08-.44,4.06,4.06,0,0,0-.33-.92,4.64,4.64,0,0,0-.51-.79,3.59,3.59,0,0,0-.32-.36l-.13-.13-.17-.16a7.37,7.37,0,0,0-.65-.49,7.16,7.16,0,0,0-.64-.38l-.2-.1-.44-.2A11.33,11.33,0,0,0,91,19.14c-.41-.13-.81-.24-1.21-.33s-.66-.17-1-.27-.6-.2-.89-.33l-.23-.1L87.54,18l-.33-.19a1.55,1.55,0,0,1-.24-.19l-.09-.08-.08-.09a1.37,1.37,0,0,1-.1-.14.68.68,0,0,1-.06-.2l0-.13a1.36,1.36,0,0,1,0-.21,1.17,1.17,0,0,1,0-.2,1.51,1.51,0,0,1,.11-.22,1.84,1.84,0,0,1,.37-.43,3.15,3.15,0,0,1,.55-.38,3.7,3.7,0,0,1,1.44-.36,2.67,2.67,0,0,1,.4,0,2.33,2.33,0,0,1,.38,0,3.26,3.26,0,0,1,1.36.5,1.8,1.8,0,0,1,.73.84.4.4,0,0,0,.5.22.38.38,0,0,0,.22-.5,2.61,2.61,0,0,0-1-1.2,4,4,0,0,0-1.67-.62l-.46-.05h-.46a4.33,4.33,0,0,0-.91.14,3.69,3.69,0,0,0-.84.31,3.61,3.61,0,0,0-.72.48,2.59,2.59,0,0,0-.51.61,2,2,0,0,0-.27.69,1.51,1.51,0,0,0,0,.37v.11s0,.1,0,.12,0,.09,0,.1a1.39,1.39,0,0,0,.12.32,2.29,2.29,0,0,0,.17.27l.12.12a.5.5,0,0,0,.07.08l.08.06a2.1,2.1,0,0,0,.33.26l.39.23.23.11.22.1a8.31,8.31,0,0,0,1,.35c.33.1.67.2,1,.28s.77.2,1.16.32.8.27,1.17.42l.58.28c.2.1.39.22.58.34a6.24,6.24,0,0,1,.62.48l.21.2a2.37,2.37,0,0,1,.25.29,3.39,3.39,0,0,1,.43.66,3.55,3.55,0,0,1,.28.77c0,.12,0,.24.07.37l0,.39,0,.42a1.18,1.18,0,0,1,0,.16l0,.2a4.18,4.18,0,0,1-.53,1.41,4.7,4.7,0,0,1-.94,1.11,5.28,5.28,0,0,1-1.15.78,6.14,6.14,0,0,1-1.28.48,6.79,6.79,0,0,1-1.33.2c-.22,0-.44,0-.67,0s-.44,0-.66-.07L88,28.71l-.33-.08a4.75,4.75,0,0,1-.64-.2,6,6,0,0,1-.63-.27,4.48,4.48,0,0,1-.6-.35,5.12,5.12,0,0,1-1.07-.94A4.33,4.33,0,0,1,84,25.6a.38.38,0,0,0-.5-.22.4.4,0,0,0-.22.5,5.07,5.07,0,0,0,.9,1.49,5.85,5.85,0,0,0,1.23,1.08,5.06,5.06,0,0,0,.68.4,7.37,7.37,0,0,0,.7.3,6.59,6.59,0,0,0,.72.22l.37.09c.13,0,.25.05.38.06a6,6,0,0,0,.73.07h.74a6.88,6.88,0,0,0,1.48-.22,7,7,0,0,0,1.43-.53A6.23,6.23,0,0,0,94,28a5.49,5.49,0,0,0,1.08-1.29,4.74,4.74,0,0,0,.64-1.7l0-.26a1.54,1.54,0,0,0,0-.19V24A.71.71,0,0,0,95.74,23.82Z" fill="#fff"/><path d="M97.39,19.75c.1.12.2.24.32.36l.14.14.16.15c.22.18.43.34.65.49a6.15,6.15,0,0,0,.64.37l.2.1.11.06.11,0,.22.1c.39.16.79.31,1.24.45s.81.23,1.21.33.66.17,1,.27a8.53,8.53,0,0,1,.89.32l.12.06.11.05.15.08a2.17,2.17,0,0,1,.33.19l.28.21.06.06.08.09a.8.8,0,0,1,.09.14.78.78,0,0,1,.07.24v.2l0,.1a1.21,1.21,0,0,1-.16.42,1.84,1.84,0,0,1-.37.43,3,3,0,0,1-1.24.63A3.57,3.57,0,0,1,103,26a2.54,2.54,0,0,1-.39,0,2.58,2.58,0,0,1-.39,0,3.36,3.36,0,0,1-1.36-.5,1.91,1.91,0,0,1-.73-.84.38.38,0,0,0-.72.27,2.63,2.63,0,0,0,1,1.21,4,4,0,0,0,1.66.62,3.75,3.75,0,0,0,.47,0h.47a5,5,0,0,0,.9-.14,3.78,3.78,0,0,0,1.56-.79,2.72,2.72,0,0,0,.52-.62,2,2,0,0,0,.26-.68v-.1a.4.4,0,0,0,0-.18s0-.09,0-.11a1.26,1.26,0,0,0,0-.16,1.3,1.3,0,0,0,0-.15,1.63,1.63,0,0,0-.11-.31,1.41,1.41,0,0,0-.18-.27.79.79,0,0,0-.11-.14l-.07-.07-.09-.07a2.34,2.34,0,0,0-.34-.26,3.72,3.72,0,0,0-.38-.22l-.17-.09-.12-.06-.16-.07c-.3-.12-.62-.24-1-.34a10.12,10.12,0,0,0-1-.28c-.38-.1-.77-.2-1.16-.32a10.6,10.6,0,0,1-1.17-.43l-.58-.28a5.7,5.7,0,0,1-.58-.33,6.24,6.24,0,0,1-.62-.48l-.21-.2a3.74,3.74,0,0,1-.25-.29,3.64,3.64,0,0,1-.43-.67,3.11,3.11,0,0,1-.27-.76,2.87,2.87,0,0,1-.08-.38l0-.39a4,4,0,0,1,0-.77,4.37,4.37,0,0,1,.53-1.42,4.91,4.91,0,0,1,.94-1.11A5.61,5.61,0,0,1,99.88,13a5.83,5.83,0,0,1,1.27-.47,6.57,6.57,0,0,1,1.33-.2h.67a5.26,5.26,0,0,1,.67.07l.32,0,.33.08a5.38,5.38,0,0,1,.65.2,4.85,4.85,0,0,1,.62.27,4.48,4.48,0,0,1,.6.35,4.85,4.85,0,0,1,1.07.94,4.25,4.25,0,0,1,.76,1.27.4.4,0,0,0,.5.22.38.38,0,0,0,.22-.5,5.2,5.2,0,0,0-.9-1.49,6,6,0,0,0-1.22-1.08,6.71,6.71,0,0,0-.68-.4c-.23-.11-.47-.21-.7-.3a6.83,6.83,0,0,0-.73-.23l-.37-.08-.37-.07c-.24,0-.49-.05-.74-.06a4.57,4.57,0,0,0-.74,0,7.35,7.35,0,0,0-1.48.22,6.46,6.46,0,0,0-1.43.53,6.16,6.16,0,0,0-1.31.89,5.26,5.26,0,0,0-1.09,1.28,4.94,4.94,0,0,0-.63,1.69,4.12,4.12,0,0,0-.07.92v.1s0,.13,0,.14l0,.23a3.4,3.4,0,0,0,.08.46,4.65,4.65,0,0,0,.33.93A4.86,4.86,0,0,0,97.39,19.75Z" fill="#fff"/><path d="M98.8,16.08a3.11,3.11,0,0,1,.22-.45,3.37,3.37,0,0,1,.65-.77,4.45,4.45,0,0,1,1.84-.93,5.45,5.45,0,0,1,2.1-.11l.51.1c.17,0,.34.1.49.15l.49.21q.23.12.45.27a3.51,3.51,0,0,1,.76.67,2.82,2.82,0,0,1,.52.85.38.38,0,0,0,.72-.27,3.89,3.89,0,0,0-.65-1.08,4.59,4.59,0,0,0-.93-.81,5.64,5.64,0,0,0-.53-.31,4.72,4.72,0,0,0-.56-.24,5.58,5.58,0,0,0-.58-.18l-.25-.06-.13,0-.21,0a6.17,6.17,0,0,0-2.39.12,5.07,5.07,0,0,0-2.15,1.11,3.82,3.82,0,0,0-.81,1,3.77,3.77,0,0,0-.28.57,3.43,3.43,0,0,0-.16.61,2.9,2.9,0,0,0,0,.67.61.61,0,0,0,0,.14l0,.21c0,.09,0,.18,0,.26a3,3,0,0,0,.22.62,3.46,3.46,0,0,0,.35.53,2.78,2.78,0,0,0,.22.26l.1.09.12.11a3.32,3.32,0,0,0,.49.37A4.74,4.74,0,0,0,100,20l.18.09.36.17c.36.15.73.28,1.1.4s.74.21,1.12.3.71.18,1.07.29a10.54,10.54,0,0,1,1,.38l.21.09.1.05.18.09.45.27a3.91,3.91,0,0,1,.41.3l.09.08.13.14.12.14a1.81,1.81,0,0,1,.26.4,2,2,0,0,1,.17.46,1.24,1.24,0,0,1,0,.22v.51s0,.1,0,.11l0,.12a2.47,2.47,0,0,1-.35.92,2.93,2.93,0,0,1-.65.77,4,4,0,0,1-.85.58,5.22,5.22,0,0,1-1,.37,5.48,5.48,0,0,1-2.1.1l-.24,0-.11,0-.16-.05a4.13,4.13,0,0,1-.5-.15,3.48,3.48,0,0,1-.48-.21,3,3,0,0,1-.46-.26,4.06,4.06,0,0,1-.76-.67,3,3,0,0,1-.52-.85.38.38,0,1,0-.71.27,3.54,3.54,0,0,0,.65,1.08,4.46,4.46,0,0,0,.92.81,5.64,5.64,0,0,0,.53.31,5.55,5.55,0,0,0,.56.24,5,5,0,0,0,.56.17l.21.05.11,0,.29.05a7.07,7.07,0,0,0,.91.06,6.2,6.2,0,0,0,1.49-.18,5.87,5.87,0,0,0,1.13-.43,4.9,4.9,0,0,0,1-.68,4.21,4.21,0,0,0,.8-.95,3.37,3.37,0,0,0,.45-1.2l0-.18,0-.13v-.22s0-.13,0-.14v-.12l0-.2a2.33,2.33,0,0,0,0-.28,3,3,0,0,0-.22-.61,2.56,2.56,0,0,0-.35-.53l-.15-.19-.07-.07-.22-.2a4.3,4.3,0,0,0-.49-.38,5.61,5.61,0,0,0-.51-.3l-.2-.1-.12-.06-.23-.1c-.36-.15-.73-.28-1.1-.4s-.74-.21-1.11-.3-.72-.18-1.07-.29-.69-.24-1-.38l-.49-.23q-.22-.12-.45-.27a4,4,0,0,1-.41-.31l-.2-.19-.14-.16a2.33,2.33,0,0,1-.26-.41,1.72,1.72,0,0,1-.16-.45,2.14,2.14,0,0,1,0-.23V17a1.91,1.91,0,0,1,0-.48A2.42,2.42,0,0,1,98.8,16.08Z" fill="#fff"/><path d="M109.2,24a.71.71,0,0,0,0-.14l0-.26a3.11,3.11,0,0,0-.08-.44,4.2,4.2,0,0,0-.84-1.71,3.59,3.59,0,0,0-.32-.36l-.13-.13-.17-.16a7.37,7.37,0,0,0-.65-.49,7.16,7.16,0,0,0-.64-.38l-.2-.1-.44-.2a10.62,10.62,0,0,0-1.24-.45c-.41-.13-.81-.24-1.21-.33s-.66-.17-1-.27a7.79,7.79,0,0,1-.89-.33l-.24-.1L101,18l-.33-.19a1.55,1.55,0,0,1-.24-.19l-.09-.08-.08-.09a1.37,1.37,0,0,1-.1-.14.68.68,0,0,1-.06-.2V17a.72.72,0,0,1,0-.21,1.17,1.17,0,0,1,0-.2,1.51,1.51,0,0,1,.11-.22,1.84,1.84,0,0,1,.37-.43,3.15,3.15,0,0,1,.55-.38,3.69,3.69,0,0,1,1.45-.36,2.54,2.54,0,0,1,.39,0,2.33,2.33,0,0,1,.38,0,3.26,3.26,0,0,1,1.36.5,1.8,1.8,0,0,1,.73.84.4.4,0,0,0,.5.22.38.38,0,0,0,.22-.5,2.65,2.65,0,0,0-1-1.2,4,4,0,0,0-1.68-.62l-.46-.05h-.46a4.33,4.33,0,0,0-.91.14,3.88,3.88,0,0,0-.84.31,3.61,3.61,0,0,0-.72.48,2.59,2.59,0,0,0-.51.61,2.16,2.16,0,0,0-.17.34c0,.12-.07.23-.1.35a2.23,2.23,0,0,0,0,.37v.11s0,.1,0,.12,0,.09,0,.1a1.39,1.39,0,0,0,.12.32,2.52,2.52,0,0,0,.18.27l.11.12a.5.5,0,0,0,.07.08l.08.06a1.8,1.8,0,0,0,.34.26l.38.23.23.11.22.1a8.31,8.31,0,0,0,1,.35c.33.1.67.2,1,.28s.77.2,1.16.32.8.27,1.17.42l.58.28c.2.1.39.22.58.34a6.24,6.24,0,0,1,.62.48l.21.2a3.79,3.79,0,0,1,.26.29,3.34,3.34,0,0,1,.42.66,3.55,3.55,0,0,1,.28.77c0,.12,0,.24.07.37l0,.39v.42s0,.07,0,.16l0,.2a4.18,4.18,0,0,1-.53,1.41,4.7,4.7,0,0,1-.94,1.11,5.28,5.28,0,0,1-1.15.78,6.14,6.14,0,0,1-1.28.48,6.69,6.69,0,0,1-1.32.2c-.23,0-.45,0-.68,0s-.44,0-.66-.07l-.33-.05-.33-.08a5.24,5.24,0,0,1-.64-.2,6,6,0,0,1-.63-.27,4.48,4.48,0,0,1-.6-.35,5.12,5.12,0,0,1-1.07-.94,4.33,4.33,0,0,1-.76-1.27.38.38,0,0,0-.5-.22.4.4,0,0,0-.22.5,5.3,5.3,0,0,0,.9,1.49,5.85,5.85,0,0,0,1.23,1.08,5.77,5.77,0,0,0,.68.4c.23.11.46.21.7.3a6.59,6.59,0,0,0,.72.22l.37.09c.13,0,.25.05.38.06a6,6,0,0,0,.73.07h.74a6.88,6.88,0,0,0,1.48-.22,7,7,0,0,0,1.43-.53,6.23,6.23,0,0,0,1.32-.89,5.49,5.49,0,0,0,1.08-1.29,4.74,4.74,0,0,0,.64-1.7l0-.26a1.54,1.54,0,0,0,0-.19l0-.34Z" fill="#fff"/><path d="M11.76,12.27a.55.55,0,0,1,.53.4L16,26.46a.4.4,0,0,0,.74,0L20.54,12a.38.38,0,0,0-.28-.46.36.36,0,0,0-.46.27L16.32,24.87,13,12.47a1.33,1.33,0,0,0-1.27-1,1.31,1.31,0,0,0-1.26,1L6.28,28.35a.57.57,0,0,1-.56.43.59.59,0,0,1-.57-.43L.75,11.79a.37.37,0,0,0-.47-.27A.38.38,0,0,0,0,12l4.4,16.56a1.36,1.36,0,0,0,1.31,1,1.34,1.34,0,0,0,1.3-1l4.22-15.87A.54.54,0,0,1,11.76,12.27Z" fill="#fff"/><path d="M5.35,26.46a.38.38,0,0,0,.74,0L9.93,12a.36.36,0,0,0-.27-.46.38.38,0,0,0-.47.27L5.72,24.87,2.24,11.79a.36.36,0,0,0-.46-.27A.38.38,0,0,0,1.5,12Z" fill="#fff"/><path d="M5.35,20.85a.38.38,0,0,0,.37.29l.1,0a.39.39,0,0,0,.27-.47L3.73,11.79a.37.37,0,0,0-.47-.27A.38.38,0,0,0,3,12Z" fill="#fff"/><path d="M16.22,21.12l.1,0a.38.38,0,0,0,.37-.29L19,12a.36.36,0,0,0-.27-.46.38.38,0,0,0-.47.27L16,20.65A.39.39,0,0,0,16.22,21.12Z" fill="#fff"/><path d="M12.13,20.33a.38.38,0,0,0-.46-.27.38.38,0,0,0-.28.47l2.33,8.74a.38.38,0,0,0,.37.28h.09a.39.39,0,0,0,.28-.47Z" fill="#fff"/></svg>